<svg height="100%" width="100%">
    <path
        d="M8,21 L12,21 L17,26 L17,10 L12,15 L8,15 L8,21 Z M19,14 L19,22 C20.48,21.32 21.5,19.77 21.5,18 C21.5,16.26 20.48,14.74 19,14 Z" />

    <path id="volume_svg_1"
        d="M19,11.29 C21.89,12.15 24,14.83 24,18 C24,21.17 21.89,23.85 19,24.71 L19,26.77 C23.01,25.86 26,22.28 26,18 C26,13.72 23.01,10.14 19,9.23 L19,11.29 Z"
        style="opacity: 1" />

    <path id="volume_svg_2" d="M 9.25,9 7.98,10.27 24.71,27 l 1.27,-1.27 Z" style="opacity: 0" />
</svg>